<svg width="21" height="25" viewBox="0 0 21 25" fill="none" xmlns="http://www.w3.org/2000/svg">
<path d="M17.1174 0H3.88256C1.78316 0 0 1.69557 0 3.88721V23.7632C0 24.2636 0.300997 24.7146 0.762706 24.9061C1.19007 25.0835 1.72995 25.0178 2.10928 24.6381C2.10928 24.6381 5.78517 20.9584 7.00851 19.7304C7.0287 19.7112 7.05415 19.7001 7.07878 19.7001H17.1174C19.2425 19.7001 21 17.9819 21 15.8129V3.88729C21 1.69524 19.2163 0 17.1174 0ZM14.4704 13.0747H6.52951C5.84711 13.0747 5.29389 12.5208 5.29389 11.8376C5.29389 11.1544 5.84711 10.6005 6.52951 10.6005H14.4704C15.1528 10.6005 15.706 11.1544 15.706 11.8376C15.706 12.5208 15.1529 13.0747 14.4704 13.0747ZM14.4704 7.7745H6.52951C5.84711 7.7745 5.29389 7.22061 5.29389 6.5374C5.29389 5.85419 5.84711 5.3003 6.52951 5.3003H14.4704C15.1528 5.3003 15.706 5.85419 15.706 6.5374C15.706 7.22061 15.1529 7.7745 14.4704 7.7745Z" fill="white"/>
</svg>
