<svg width="20" height="25" viewBox="0 0 20 25" fill="none" xmlns="http://www.w3.org/2000/svg">
<path d="M15.9897 2.38004C14.0627 0.697465 11.5463 -0.150732 8.99405 0.0220429C6.44175 0.194818 4.06262 1.37441 2.38004 3.30133C0.697466 5.22825 -0.150732 7.74465 0.0220429 10.2969C0.194818 12.8492 1.37441 15.2284 3.30133 16.9109C5.5533 18.7826 7.43503 21.0592 8.84931 23.6232C8.91849 23.7506 9.02078 23.857 9.14538 23.9311C9.26999 24.0053 9.41228 24.0444 9.55727 24.0444C9.70226 24.0444 9.84456 24.0053 9.96916 23.9311C10.0938 23.857 10.196 23.7506 10.2652 23.6232L10.3318 23.4988C11.7559 20.9653 13.6335 18.7151 15.8711 16.8603C16.9079 15.9642 17.7418 14.8574 18.317 13.6135C18.8922 12.3696 19.1955 11.0174 19.2068 9.64702C19.218 8.27664 18.9368 6.91963 18.3821 5.66651C17.8273 4.41339 17.0117 3.29299 15.9897 2.38004ZM9.558 13.5932C8.76325 13.5923 7.98659 13.3558 7.3262 12.9137C6.66581 12.4715 6.15133 11.8435 5.84779 11.109C5.54425 10.3745 5.46527 9.5665 5.62084 8.78713C5.77642 8.00776 6.15956 7.292 6.72183 6.73034C7.2841 6.16867 8.00027 5.7863 8.77981 5.63157C9.55935 5.47684 10.3673 5.55669 11.1014 5.86102C11.8356 6.16535 12.4631 6.68051 12.9045 7.34138C13.346 8.00225 13.5816 8.77916 13.5816 9.5739C13.5816 10.1021 13.4775 10.6251 13.2752 11.113C13.073 11.6009 12.7765 12.0442 12.4028 12.4175C12.0292 12.7908 11.5856 13.0867 11.0974 13.2885C10.6093 13.4902 10.0862 13.5937 9.558 13.5932Z" fill="#231E5F"/>
</svg>
