<svg width="14" height="16" viewBox="0 0 14 16" fill="none" xmlns="http://www.w3.org/2000/svg">
<path d="M6.26 6.92675L3.66667 9.51809L1.07333 6.92675C0.560715 6.41389 0.211669 5.76055 0.0703298 5.04933C-0.0710099 4.33812 0.00170283 3.60096 0.279275 2.93107C0.556847 2.26117 1.02681 1.68862 1.62976 1.28579C2.2327 0.882972 2.94154 0.667969 3.66667 0.667969C4.39179 0.667969 5.10064 0.882972 5.70358 1.28579C6.30652 1.68862 6.77649 2.26117 7.05406 2.93107C7.33163 3.60096 7.40435 4.33812 7.26301 5.04933C7.12167 5.76055 6.77262 6.41389 6.26 6.92675ZM3.66667 5.66675C4.02029 5.66675 4.35943 5.52628 4.60948 5.27623C4.85953 5.02618 5 4.68704 5 4.33342C5 3.9798 4.85953 3.64066 4.60948 3.39061C4.35943 3.14056 4.02029 3.00009 3.66667 3.00009C3.31305 3.00009 2.97391 3.14056 2.72386 3.39061C2.47381 3.64066 2.33333 3.9798 2.33333 4.33342C2.33333 4.68704 2.47381 5.02618 2.72386 5.27623C2.97391 5.52628 3.31305 5.66675 3.66667 5.66675ZM12.26 12.9268L9.66667 15.5188L7.07333 12.9261C6.56071 12.4132 6.21167 11.7599 6.07033 11.0487C5.92899 10.3375 6.0017 9.6003 6.27927 8.9304C6.55685 8.2605 7.02681 7.68795 7.62976 7.28513C8.2327 6.88231 8.94154 6.6673 9.66667 6.6673C10.3918 6.6673 11.1006 6.88231 11.7036 7.28513C12.3065 7.68795 12.7765 8.2605 13.0541 8.9304C13.3316 9.6003 13.4043 10.3375 13.263 11.0487C13.1217 11.7599 12.7726 12.4132 12.26 12.9261V12.9268ZM9.66667 11.6668C10.0203 11.6668 10.3594 11.5263 10.6095 11.2762C10.8595 11.0262 11 10.687 11 10.3334C11 9.9798 10.8595 9.64066 10.6095 9.39061C10.3594 9.14056 10.0203 9.00009 9.66667 9.00009C9.31305 9.00009 8.97391 9.14056 8.72386 9.39061C8.47381 9.64066 8.33333 9.9798 8.33333 10.3334C8.33333 10.687 8.47381 11.0262 8.72386 11.2762C8.97391 11.5263 9.31305 11.6668 9.66667 11.6668Z" fill="#231E5F" fill-opacity="0.2"/>
</svg>
